<svg width="167" height="161" viewBox="0 0 167 161" fill="none" xmlns="http://www.w3.org/2000/svg">
<path d="M31.0001 40.7427H136L166 82.1496L83.5 159.048L1 82.1496L31.0001 40.7427Z" stroke="#FFE787" stroke-width="2" stroke-linecap="round" stroke-linejoin="round"/>
<path d="M31.0039 40.7427L83.5042 159.048L136.004 40.7427" stroke="#FFE787" stroke-width="2" stroke-linecap="round" stroke-linejoin="round"/>
<path d="M1 82.1484H166" stroke="#FFE787" stroke-width="2" stroke-linecap="round" stroke-linejoin="round"/>
<path d="M49.75 82.1496L83.5 40.7427L117.25 82.1496" stroke="#FFE787" stroke-width="2" stroke-linecap="round" stroke-linejoin="round"/>
<rect x="81" y="22" width="5" height="5" fill="#FFE787"/>
<mask id="path-6-inside-1_27_515" fill="white">
<rect x="71.125" y="26.5005" width="24.75" height="11.3573" rx="1"/>
</mask>
<rect x="71.125" y="26.5005" width="24.75" height="11.3573" rx="1" stroke="#FFE787" stroke-width="4" mask="url(#path-6-inside-1_27_515)"/>
<mask id="path-7-inside-2_27_515" fill="white">
<path d="M94.875 0C95.4273 0 95.875 0.447715 95.875 1V6.96582H95.874C92.1617 6.53063 89.3614 8.99093 89.3613 11.0195C89.3613 13.0482 92.1617 15.237 95.874 14.8018L95.875 14.8008V22.5088C95.875 23.0611 95.4273 23.5088 94.875 23.5088H72.125C71.5727 23.5088 71.125 23.0611 71.125 22.5088V1C71.125 0.447715 71.5727 0 72.125 0H94.875Z"/>
</mask>
<path d="M95.875 6.96582V8.96582H97.875V6.96582H95.875ZM95.874 6.96582L95.6412 8.95222L95.7572 8.96582H95.874V6.96582ZM89.3613 11.0195L87.3613 11.0194V11.0195H89.3613ZM95.874 14.8018L96.1069 16.7882L96.797 16.7073L97.2882 16.216L95.874 14.8018ZM95.875 14.8008H97.875V9.97235L94.4608 13.3866L95.875 14.8008ZM72.125 0L72.125 -2L72.125 0ZM94.875 0V2C94.3227 2 93.875 1.55228 93.875 1H95.875H97.875C97.875 -0.656852 96.5319 -2 94.875 -2V0ZM95.875 1H93.875V6.96582H95.875H97.875V1H95.875ZM95.875 6.96582V4.96582H95.874V6.96582V8.96582H95.875V6.96582ZM95.874 6.96582L96.1069 4.97942C93.7523 4.70339 91.6353 5.34152 90.0793 6.42987C88.5969 7.46672 87.3614 9.12626 87.3613 11.0194L89.3613 11.0195L91.3613 11.0196C91.3613 10.8842 91.5261 10.2993 92.3719 9.70764C93.1442 9.16748 94.2835 8.79306 95.6412 8.95222L95.874 6.96582ZM89.3613 11.0195H87.3613C87.3613 12.953 88.6422 14.554 90.1461 15.5182C91.7146 16.5239 93.8096 17.0575 96.1069 16.7882L95.874 14.8018L95.6412 12.8154C94.2261 12.9813 93.0647 12.638 92.305 12.1509C91.4806 11.6224 91.3613 11.1147 91.3613 11.0195H89.3613ZM95.874 14.8018L97.2882 16.216L97.2892 16.215L95.875 14.8008L94.4608 13.3866L94.4598 13.3875L95.874 14.8018ZM95.875 14.8008H93.875V22.5088H95.875H97.875V14.8008H95.875ZM95.875 22.5088H93.875C93.875 21.9565 94.3227 21.5088 94.875 21.5088V23.5088V25.5088C96.5319 25.5088 97.875 24.1656 97.875 22.5088H95.875ZM94.875 23.5088V21.5088H72.125V23.5088V25.5088H94.875V23.5088ZM72.125 23.5088V21.5088C72.6773 21.5088 73.125 21.9565 73.125 22.5088H71.125H69.125C69.125 24.1656 70.4681 25.5088 72.125 25.5088V23.5088ZM71.125 22.5088H73.125V1H71.125H69.125V22.5088H71.125ZM71.125 1H73.125C73.125 1.55228 72.6773 2 72.125 2L72.125 0L72.125 -2C70.4681 -2 69.125 -0.656854 69.125 1H71.125ZM72.125 0V2H94.875V0V-2H72.125V0Z" fill="#FFE787" mask="url(#path-7-inside-2_27_515)"/>
</svg>
